<svg xmlns="http://www.w3.org/2000/svg" viewBox="0 0 292.83 39.98"><defs><style>.cls-1{fill:#4ca1d2;}.cls-2{fill:#005fab;}.cls-3{fill:#00b3e2;}</style></defs><title>Asset 1</title><g id="Layer_2" data-name="Layer 2"><g id="Layer_1-2" data-name="Layer 1"><path class="cls-1" d="M13.66,0l8.83,39.28H17.9L15.43,27.91H6.65L4.24,39.28H0L9,0Zm1.06,24.26L11.13,4.65,7.42,24.26Z"/><path class="cls-1" d="M24.61,0h4.06V14.37c.53-1.35,1.82-4.65,6-4.65,8.42,0,8.54,11.19,8.54,14.72S42.87,33.62,40,37a7.85,7.85,0,0,1-5.95,2.77,6.27,6.27,0,0,1-6.3-4.06l-1,3.53H24.61Zm4.06,28.21c0,1.35,0,4.53,1.41,6.42a4.22,4.22,0,0,0,3.3,1.88c4.36,0,5.36-5.59,5.36-12,0-7.48-1.12-11.37-4.89-11.37-2.24,0-5.18,1.65-5.18,10Z"/><path class="cls-1" d="M64.6,25c0,9-2.59,15-9.6,15-7.24,0-9.48-6.71-9.48-15.07,0-4.36.82-15.37,9.54-15.37C63.54,9.54,64.6,19.73,64.6,25ZM51.47,15.31C50.05,18,50,23.32,50,24.91c0,8.66,1.71,11.6,5.06,11.6,2.95,0,5.06-2.29,5.06-11.07,0-9.3-1.59-12.42-5.06-12.42A3.77,3.77,0,0,0,51.47,15.31Z"/><path class="cls-1" d="M83.68,39.28H80V35.8C79.14,37.39,77.73,40,73.61,40c-1.18,0-4.12-.29-5.54-2.71-.7-1.29-.94-2.94-.94-7.54V10.25h4.06V30c0,3,0,6.3,3.65,6.3,4.12,0,4.77-4.42,4.77-7.36V10.25h4.06Z"/><path class="cls-1" d="M86.15,10.25h3.3V2.95l4.06-.47v7.77h4.95V13.6H93.51V29.38c0,4.77.41,6.06,3.53,6.06a12.82,12.82,0,0,0,2.18-.17v3.53a8,8,0,0,1-3.47.59c-6.06,0-6.3-4.3-6.3-10V13.6h-3.3Z"/><path class="cls-2" d="M120.48,39.28l-8.24-20.61-4.59,7.6v13h-4.47V0h4.47V19.73L118.6,0h4.83l-8.54,14.31,10.66,25Z"/><path class="cls-2" d="M132.14,0V5h-4.42V0ZM127.9,10.25H132v29H127.9Z"/><path class="cls-2" d="M153.58,39.28H150V35.51a6.44,6.44,0,0,1-6.42,4.3c-7.83,0-8.65-9.71-8.65-14.48,0-11.6,4.47-15.61,9.07-15.61a5.53,5.53,0,0,1,5.48,3.83V0h4.06Zm-4.06-18.49c0-2.71-.88-7.6-5-7.6-4.48,0-5.06,6.06-5.06,11.25,0,1.47,0,6.65,1.35,9.48a4,4,0,0,0,3.83,2.59,4.19,4.19,0,0,0,3.65-2.06c1.18-1.65,1.24-3.89,1.24-5.83Z"/><path class="cls-2" d="M169.54,17.72c-.59-2.12-1.41-4.71-4.59-4.71a3.74,3.74,0,0,0-4,4c0,2.94,1.88,3.95,4.54,5.3,5.89,3.06,8.12,4.18,8.12,9.07,0,5.54-3.53,8.6-8.48,8.6-7.89,0-8.83-6.18-9.13-8.13l3.59-.94c.41,2,1.06,5.59,5.48,5.59A4.11,4.11,0,0,0,169.42,32c0-3.24-1.47-4-5.95-6.24-3.71-1.88-6.54-3.89-6.54-8.36,0-3.18,1.83-7.89,7.95-7.89,6.54,0,7.66,5.18,8.13,7.3Z"/><path class="cls-3" d="M191.56,15.49V0h8.07V39.28h-8.07V22.38h-5.95v16.9h-8.07V0h8.07V15.49Z"/><path class="cls-3" d="M209.23,26c-.12,5.12.36,8,3.18,8,2.24,0,2.71-1.88,3.12-4.77l6.18.53c-.29,4.83-2.83,10.07-9.54,10.07-7.66,0-10.48-5.89-10.48-14.9,0-7.13,2-15.31,10.42-15.31,4.89,0,7.24,2.89,8.54,5.89S222,23.5,222,26ZM215,21.26c-.06-4.53-.88-6.3-2.71-6.3-2.77,0-3,3.89-3.12,6.3Z"/><path class="cls-3" d="M236.44,39.28c-.29-.65-.53-1.06-.47-3.59-1.29,2.36-3.53,4.18-6.18,4.18-1.12,0-6.18-.36-6.18-8.07A9.81,9.81,0,0,1,226.9,24c2.36-2,5.18-2.47,8.6-2.71-.06-4.42-.24-6.12-2-6.12-2.12,0-2.36,2.83-2.47,4.3l-6.6-.77c.65-5.54,3.59-9,9.36-9,1.71,0,5.42.41,7.54,3.24,1.36,1.83,1.41,5.06,1.41,8.36V33c0,4.3,0,4.77.35,6.24ZM231.14,31c0,2.06.41,3.59,1.88,3.59,2.53,0,2.53-3.24,2.47-9.3C232,25.91,231.14,28,231.14,31Z"/><path class="cls-3" d="M246.49,0H254V39.28h-7.54Z"/><path class="cls-3" d="M259.71,1.36l6.54-.47v9.37h4.54v6.06h-4.54V28.56c0,3.18.29,4.54,3,4.54a7.54,7.54,0,0,0,1.88-.18v6a17.78,17.78,0,0,1-4.83.77c-2.35,0-4.95-.82-6-2.3-1.47-2-1.59-4.18-1.59-8.54V16.31h-3.12V10.25h3.47Z"/><path class="cls-3" d="M273,0h7.54V14c.71-1.88,1.83-4.36,5.89-4.36,6.18,0,6.36,4.95,6.36,8.66v21h-7.54V19.14c0-1.71,0-3.24-2.24-3.24s-2.47,1.41-2.47,3.54V39.28H273Z"/></g></g></svg>