<?xml version="1.0" encoding="UTF-8"?>
<svg width="1009px" height="263px" viewBox="0 0 1009 263" version="1.1" xmlns="http://www.w3.org/2000/svg" xmlns:xlink="http://www.w3.org/1999/xlink">
    <!-- Generator: Sketch 46.2 (44496) - http://www.bohemiancoding.com/sketch -->
    <title>All/Logos/Logos/Logo_Regular</title>
    <desc>Created with Sketch.</desc>
    <defs></defs>
    <g id="Logo" stroke="none" stroke-width="1" fill="none" fill-rule="evenodd">
        <g id="All/Logos/Logos/Logo_Regular">
            <path d="M689.725628,154.078125 C688.72953,150.855453 687.250052,147.911146 685.287152,145.245117 C683.324251,142.579088 681.039118,140.293955 678.431683,138.389648 C675.824248,136.485342 672.953183,135.005865 669.818402,133.951172 C666.683621,132.896479 663.446348,132.369141 660.106488,132.369141 C656.766627,132.369141 653.514707,132.896479 650.350628,133.951172 C647.18655,135.005865 644.286189,136.485342 641.649457,138.389648 C639.012725,140.293955 636.727591,142.579088 634.793988,145.245117 C632.860384,147.911146 631.424852,150.855453 630.487347,154.078125 L689.725628,154.078125 Z M685.77055,184.751953 C688.407282,184.751953 690.589878,185.616202 692.318402,187.344727 C694.046926,189.073251 694.911175,191.255846 694.911175,193.892578 C694.911175,196.470716 694.032278,198.66796 692.274457,200.484375 C683.19238,208.453165 672.469831,212.4375 660.106488,212.4375 C646.51267,212.4375 634.911223,207.632861 625.3018,198.023438 C615.692377,188.414014 610.887738,176.812568 610.887738,163.21875 C610.887738,149.624932 615.692377,138.023486 625.3018,128.414062 C634.911223,118.804639 646.51267,114 660.106488,114 C673.583118,114 685.184564,118.804639 694.911175,128.414062 C699.715887,133.16018 703.319366,138.448213 705.721722,144.27832 C708.124078,150.108428 709.325238,156.421841 709.325238,163.21875 C709.325238,165.855482 708.431692,168.038077 706.644574,169.766602 C704.857455,171.495126 702.67486,172.359375 700.096722,172.359375 L630.487347,172.359375 C631.483446,175.582047 632.948275,178.526354 634.881878,181.192383 C636.815482,183.858412 639.085967,186.143545 641.693402,188.047852 C644.300837,189.952158 647.171902,191.431635 650.306683,192.486328 C653.441464,193.541021 656.708033,194.068359 660.106488,194.068359 C663.973695,194.068359 667.518581,193.482428 670.741253,192.310547 C673.963926,191.138666 676.952177,189.380871 679.706097,187.037109 C681.463919,185.572258 683.485383,184.810547 685.77055,184.751953 Z" id="rentseeker" fill="#4A4A4A"></path>
            <path d="M574.77055,184.751953 C577.407282,184.751953 579.589878,185.616202 581.318402,187.344727 C583.046926,189.073251 583.911175,191.255846 583.911175,193.892578 C583.911175,196.470716 583.032278,198.66796 581.274457,200.484375 C572.19238,208.453165 561.469831,212.4375 549.106488,212.4375 C535.51267,212.4375 523.911223,207.632861 514.3018,198.023438 C504.692377,188.414014 499.887738,176.812568 499.887738,163.21875 C499.887738,149.624932 504.692377,138.023486 514.3018,128.414062 C523.911223,118.804639 535.51267,114 549.106488,114 C562.583118,114 574.184564,118.804639 583.911175,128.414062 C588.715887,133.16018 592.319366,138.448213 594.721722,144.27832 C597.124078,150.108428 598.325238,156.421841 598.325238,163.21875 C598.325238,165.855482 597.431692,168.038077 595.644574,169.766602 C593.857455,171.495126 591.67486,172.359375 589.096722,172.359375 L519.487347,172.359375 C520.483446,175.582047 521.948275,178.526354 523.881878,181.192383 C525.815482,183.858412 528.085967,186.143545 530.693402,188.047852 C533.300837,189.952158 536.171902,191.431635 539.306683,192.486328 C542.441464,193.541021 545.708033,194.068359 549.106488,194.068359 C552.973695,194.068359 556.518581,193.482428 559.741253,192.310547 C562.963926,191.138666 565.952177,189.380871 568.706097,187.037109 C570.463919,185.572258 572.485383,184.810547 574.77055,184.751953 Z M578.725628,154.078125 C577.72953,150.855453 576.250052,147.911146 574.287152,145.245117 C572.324251,142.579088 570.039118,140.293955 567.431683,138.389648 C564.824248,136.485342 561.953183,135.005865 558.818402,133.951172 C555.683621,132.896479 552.446348,132.369141 549.106488,132.369141 C545.766627,132.369141 542.514707,132.896479 539.350628,133.951172 C536.18655,135.005865 533.286189,136.485342 530.649457,138.389648 C528.012725,140.293955 525.727591,142.579088 523.793988,145.245117 C521.860384,147.911146 520.424852,150.855453 519.487347,154.078125 L578.725628,154.078125 Z" id="Combined-Shape" fill="#4A4A4A"></path>
            <path d="M888.77055,184.751953 C891.407282,184.751953 893.589878,185.616202 895.318402,187.344727 C897.046926,189.073251 897.911175,191.255846 897.911175,193.892578 C897.911175,196.470716 897.032278,198.66796 895.274457,200.484375 C886.19238,208.453165 875.469831,212.4375 863.106488,212.4375 C849.51267,212.4375 837.911223,207.632861 828.3018,198.023438 C818.692377,188.414014 813.887738,176.812568 813.887738,163.21875 C813.887738,149.624932 818.692377,138.023486 828.3018,128.414062 C837.911223,118.804639 849.51267,114 863.106488,114 C876.583118,114 888.184564,118.804639 897.911175,128.414062 C902.715887,133.16018 906.319366,138.448213 908.721722,144.27832 C911.124078,150.108428 912.325238,156.421841 912.325238,163.21875 C912.325238,165.855482 911.431692,168.038077 909.644574,169.766602 C907.857455,171.495126 905.67486,172.359375 903.096722,172.359375 L833.487347,172.359375 C834.483446,175.582047 835.948275,178.526354 837.881878,181.192383 C839.815482,183.858412 842.085967,186.143545 844.693402,188.047852 C847.300837,189.952158 850.171902,191.431635 853.306683,192.486328 C856.441464,193.541021 859.708033,194.068359 863.106488,194.068359 C866.973695,194.068359 870.518581,193.482428 873.741253,192.310547 C876.963926,191.138666 879.952177,189.380871 882.706097,187.037109 C884.463919,185.572258 886.485383,184.810547 888.77055,184.751953 Z M892.725628,154.078125 C891.72953,150.855453 890.250052,147.911146 888.287152,145.245117 C886.324251,142.579088 884.039118,140.293955 881.431683,138.389648 C878.824248,136.485342 875.953183,135.005865 872.818402,133.951172 C869.683621,132.896479 866.446348,132.369141 863.106488,132.369141 C859.766627,132.369141 856.514707,132.896479 853.350628,133.951172 C850.18655,135.005865 847.286189,136.485342 844.649457,138.389648 C842.012725,140.293955 839.727591,142.579088 837.793988,145.245117 C835.860384,147.911146 834.424852,150.855453 833.487347,154.078125 L892.725628,154.078125 Z" id="Combined-Shape" fill="#4A4A4A"></path>
            <path d="M427.081097,165.591797 C421.573257,163.482411 417.706108,161.314464 415.479535,159.087891 L415.567425,159.087891 C411.114278,154.576149 408.887738,149.273468 408.887738,143.179688 C408.887738,138.72654 410.074249,134.69826 412.447308,131.094727 C414.820367,127.491193 417.911156,124.4297 421.719769,121.910156 C425.528382,119.390612 429.820331,117.44239 434.595746,116.06543 C439.37116,114.68847 444.161151,114 448.965863,114 C463.614374,114 476.182607,119.888613 486.670941,131.666016 C487.901416,133.189461 488.516644,135.035145 488.516644,137.203125 C488.516644,139.839857 487.652395,142.022452 485.923871,143.750977 C484.195346,145.479501 482.012751,146.34375 479.376019,146.34375 C477.50101,146.34375 475.904346,145.816412 474.58598,144.761719 C473.267614,143.707026 471.993213,142.564459 470.762738,141.333984 C464.786145,135.357392 457.520593,132.369141 448.965863,132.369141 C440.528321,132.369141 433.790107,134.94724 428.751019,140.103516 C427.813514,141.04102 427.344769,142.33007 427.344769,143.970703 C427.344769,145.611336 428.10648,146.724606 429.629925,147.310547 L470.762738,160.845703 C476.504954,163.072277 480.372103,165.240224 482.3643,167.349609 L482.27641,167.349609 C486.729557,171.861351 488.956097,177.164032 488.956097,183.257812 C488.956097,187.769554 487.769586,191.812482 485.396527,195.386719 C483.023468,198.960955 479.932679,202.022448 476.124066,204.571289 C472.315453,207.12013 468.038152,209.068353 463.292035,210.416016 C458.545917,211.763679 453.770574,212.4375 448.965863,212.4375 C434.200164,212.4375 421.63193,206.60748 411.260785,194.947266 C409.971716,193.248038 409.327191,191.343761 409.327191,189.234375 C409.327191,186.597643 410.19144,184.415048 411.919964,182.686523 C413.648489,180.957999 415.831084,180.09375 418.467816,180.09375 C420.401419,180.09375 422.042028,180.665033 423.389691,181.807617 C424.737354,182.950201 425.96781,184.048823 427.081097,185.103516 C433.05769,191.080108 440.352539,194.068359 448.965863,194.068359 C457.344811,194.068359 464.083025,191.431667 469.180707,186.158203 C470.059617,185.162104 470.499066,183.960945 470.499066,182.554688 C470.499066,180.914054 469.708058,179.771488 468.126019,179.126953 L427.081097,165.591797 Z" id="Path" fill="#4A4A4A"></path>
            <path d="M720.887738,203.396484 L720.887738,81.2285156 C720.887738,78.6503777 721.781284,76.4677824 723.568402,74.6806641 C725.35552,72.8935458 727.538116,72 730.116253,72 C732.635797,72 734.789096,72.8935458 736.576214,74.6806641 C738.363333,76.4677824 739.256878,78.6503777 739.256878,81.2285156 L739.256878,149.783203 L791.815472,115.59375 C793.280323,114.656245 794.920932,114.1875 796.737347,114.1875 C798.026416,114.1875 799.227576,114.421873 800.340863,114.890625 C801.45415,115.359377 802.420937,116.01855 803.241253,116.868164 C804.06157,117.717778 804.720743,118.699213 805.218793,119.8125 C805.716842,120.925787 805.965863,122.09765 805.965863,123.328125 C805.965863,126.609391 804.794,129.041008 802.450238,130.623047 L765.624066,154.529297 L803.417035,197.068359 C805.116262,198.943369 805.965863,201.082019 805.965863,203.484375 C805.965863,204.71485 805.716842,205.886713 805.218793,207 C804.720743,208.113287 804.06157,209.094722 803.241253,209.944336 C802.420937,210.79395 801.45415,211.453123 800.340863,211.921875 C799.227576,212.390627 798.026416,212.625 796.737347,212.625 C794.276397,212.625 792.225637,211.833992 790.585003,210.251953 L749.979535,164.636719 L739.256878,171.667969 L739.256878,203.396484 C739.256878,205.916028 738.363333,208.083975 736.576214,209.900391 C734.789096,211.716806 732.635797,212.625 730.116253,212.625 C727.538116,212.625 725.35552,211.716806 723.568402,209.900391 C721.781284,208.083975 720.887738,205.916028 720.887738,203.396484 Z" id="Path" fill="#4A4A4A"></path>
            <path d="M946.256878,123.140625 L946.256878,124.898438 C950.651432,121.382795 955.426775,118.687509 960.58305,116.8125 C965.739326,114.937491 971.247084,114 977.106488,114 C979.684626,114 982.453153,114.175779 985.412152,114.527344 C988.371151,114.878908 991.095733,115.508785 993.58598,116.416992 C996.076227,117.3252 998.141636,118.570305 999.782269,120.152344 C1001.4229,121.734383 1002.24321,123.785144 1002.24321,126.304688 C1002.24321,127.593756 1001.99419,128.794916 1001.49614,129.908203 C1000.99809,131.02149 1000.33891,132.002925 999.518597,132.852539 C998.698281,133.702153 997.731493,134.361326 996.618207,134.830078 C995.50492,135.29883 994.30376,135.533203 993.014691,135.533203 C991.901404,135.533203 990.612355,135.210941 989.147503,134.566406 C985.456079,133.101555 981.442447,132.369141 977.106488,132.369141 C972.829123,132.369141 968.815491,133.174797 965.065472,134.786133 C961.315453,136.397469 958.048885,138.594713 955.265668,141.37793 C952.482451,144.161147 950.285207,147.427716 948.673871,151.177734 C947.062535,154.927753 946.256878,158.941385 946.256878,163.21875 L946.256878,203.296875 C946.256878,205.816419 945.363333,207.969718 943.576214,209.756836 C941.789096,211.543954 939.635797,212.4375 937.116253,212.4375 C934.538116,212.4375 932.35552,211.543954 930.568402,209.756836 C928.781284,207.969718 927.887738,205.816419 927.887738,203.296875 L927.887738,123.140625 C927.887738,120.621081 928.781284,118.467782 930.568402,116.680664 C932.35552,114.893546 934.538116,114 937.116253,114 C939.635797,114 941.789096,114.893546 943.576214,116.680664 C945.363333,118.467782 946.256878,120.621081 946.256878,123.140625 Z" id="Path" fill="#4A4A4A"></path>
            <path d="M217.081469,14.1171595 L350.244076,61.9706154 L351.935012,57.2652209 L217.059768,8.79631014 C217.280451,9.66084121 217.397768,10.5667201 217.397768,11.5 C217.397768,12.4021907 217.288137,13.2787757 217.081469,14.1171595 Z M196.267001,15.2565503 L38.1040076,88.623718 L36,84.0879543 L195.703786,10.0060582 C195.636827,10.4944701 195.602232,10.9931949 195.602232,11.5 C195.602232,12.8201655 195.836976,14.0855036 196.267001,15.2565503 Z" id="Combined-Shape" fill="#A4A4A4" fill-rule="nonzero"></path>
            <circle id="dot" fill="#4A4A4A" cx="206.5" cy="11.5" r="6.5"></circle>
            <path d="M36.7735788,81.0687312 L350.574909,53.6146723 C367.080403,52.1706287 381.631378,64.3803468 383.075422,80.8858409 L393.011177,194.452037 C394.45522,210.957531 382.245502,225.508506 365.740008,226.95255 L51.9386781,254.406609 C35.4331839,255.850652 20.8822085,243.640934 19.4381648,227.13544 L9.50241015,113.569244 C8.05836652,97.0637503 20.2680846,82.5127749 36.7735788,81.0687312 Z M182.015971,193.590154 C179.744606,193.84769 177.797221,194.782685 176.173759,196.395166 C173.634591,198.970029 170.810913,200.981578 167.70264,202.429874 C164.594367,203.87817 161.114037,204.770829 157.261546,205.107879 C153.876024,205.404074 150.575924,205.163442 147.361149,204.385977 C144.146374,203.608512 141.15729,202.384894 138.393806,200.715087 C135.630321,199.04528 133.169314,196.966728 131.010709,194.479369 C128.852103,191.992009 127.136235,189.186575 125.863052,186.062982 L195.207543,179.996125 C197.77587,179.771426 199.874836,178.720239 201.504503,176.842535 C203.13417,174.964831 203.834089,172.712663 203.604283,170.085965 C203.011893,163.31492 201.265054,157.130219 198.363713,151.531676 C195.462371,145.933133 191.411722,140.979287 186.211642,136.669988 C175.684527,127.944862 163.708476,124.169638 150.283129,125.344204 C136.741039,126.528983 125.602492,132.326472 116.867152,142.736845 C108.131812,153.147217 104.356588,165.123269 105.541368,178.665358 C106.726147,192.207448 112.523636,203.345995 122.934009,212.081335 C133.344381,220.816675 145.320433,224.591899 158.862522,223.407119 C171.178819,222.329583 181.513308,217.425878 189.866298,208.695856 C191.45912,206.733149 192.14317,204.467665 191.918471,201.899338 C191.688664,199.27264 190.637478,197.173674 188.764881,195.602378 C186.892283,194.031082 184.642669,193.360347 182.015971,193.590154 Z M45.6329669,143.675447 C45.4133742,141.165491 44.3355563,139.098264 42.3994809,137.473704 C40.4634055,135.849143 38.240423,135.14667 35.7304668,135.366263 C33.1621395,135.590962 31.0657272,136.671334 29.441167,138.607409 C27.8166069,140.543485 27.1141337,142.766467 27.3337264,145.276423 L34.3198039,225.127655 C34.5393966,227.637611 35.6172145,229.704838 37.5532899,231.329398 C39.4893653,232.953958 41.7415329,233.653878 44.3098602,233.429179 C46.8198164,233.209586 48.8870436,232.131768 50.5116038,230.195693 C52.1361639,228.259617 52.8386371,226.036635 52.6190444,223.526678 L49.1260057,183.601063 C48.7532087,179.339974 49.2059879,175.271398 50.4843568,171.395212 C51.7627257,167.519026 53.6669079,164.073385 56.1969606,161.058186 C58.7270134,158.042986 61.7896496,155.569404 65.3849612,153.637363 C68.9802728,151.705323 72.9084139,150.552922 77.1695023,150.180125 C81.4889619,149.802221 85.5511547,150.182038 89.3562026,151.319586 C90.8716543,151.833997 92.1838857,152.042685 93.2929362,151.945656 C94.5770998,151.833306 95.753262,151.495137 96.8214579,150.931139 C97.8896539,150.367141 98.7953115,149.626216 99.5384578,148.70834 C100.281604,147.790464 100.852731,146.755312 101.251856,145.602854 C101.650981,144.450396 101.794366,143.232103 101.682016,141.947939 C101.462424,139.437983 100.466505,137.46652 98.6942314,136.033492 C96.9219575,134.600464 94.7558899,133.540109 92.1959637,132.852397 C89.6360375,132.164684 86.8669259,131.774668 83.8885458,131.682335 C80.9101657,131.590002 78.1368535,131.656185 75.5685262,131.880884 C69.7314188,132.391565 64.3263277,133.805521 59.3530909,136.122794 C54.3798542,138.440068 49.8575925,141.541296 45.7861704,145.426571 L45.6329669,143.675447 Z M233.906105,127.115456 C233.696726,124.722242 232.622738,122.698792 230.684109,121.045046 C228.74548,119.391301 226.521221,118.674235 224.011265,118.893828 C221.442937,119.118527 219.347802,120.213491 217.725795,122.178752 C216.103788,124.144013 215.402592,126.381588 215.622185,128.891544 L222.592942,208.567663 C222.817641,211.13599 223.898012,213.232403 225.834088,214.856963 C227.770163,216.481523 230.022331,217.181443 232.590658,216.956743 C235.100614,216.73715 237.167842,215.659333 238.792402,213.723257 C240.416962,211.787182 241.116882,209.535014 240.892182,206.966687 L237.115717,163.801493 C236.788881,160.065744 237.194959,156.471789 238.333962,153.019521 C239.472966,149.567253 241.187623,146.476391 243.477987,143.746842 C245.76835,141.017293 248.499916,138.793239 251.672765,137.074613 C254.845614,135.355987 258.329046,134.330719 262.123166,133.998776 C265.858914,133.67194 269.454146,134.092611 272.908967,135.2608 C276.363789,136.428988 279.440058,138.144923 282.137868,140.408654 C284.835678,142.672386 287.059732,145.403951 288.810097,148.603432 C290.560462,151.802913 291.599047,155.270476 291.925882,159.006225 L295.702348,202.171419 C295.927047,204.739746 297.007418,206.836158 298.943494,208.460718 C300.879569,210.085279 303.131737,210.785198 305.700064,210.560499 C308.21002,210.340906 310.277247,209.263088 311.901808,207.327013 C313.526368,205.390938 314.226288,203.13877 314.001588,200.570443 L310.225123,157.405249 C309.673588,151.101172 307.928204,145.269246 304.988918,139.909294 C302.049633,134.549343 298.298673,129.9957 293.735926,126.248229 C289.173178,122.500758 284.029159,119.671755 278.303713,117.761134 C272.578268,115.850513 266.651152,115.163321 260.52219,115.699536 C250.015396,116.618761 241.143456,120.42403 233.906105,127.115456 Z M322.475769,110.467516 C320.024184,110.682002 317.986142,111.757266 316.361582,113.693342 C314.737022,115.629417 314.034548,117.8524 314.254141,120.362356 C314.478841,122.930683 315.559212,125.027095 317.495287,126.651656 C319.431363,128.276216 321.62516,128.981242 324.076745,128.766756 L328.191885,128.406728 L332.044952,172.447484 C334.12853,196.262883 347.107009,207.126077 370.980778,205.037393 C373.490734,204.8178 375.543369,203.741259 377.138744,201.807737 C378.734118,199.874215 379.419446,197.623324 379.194746,195.054997 C378.975153,192.54504 377.911928,190.476537 376.005038,188.849423 C374.098148,187.222309 371.889758,186.51856 369.379802,186.738152 C357.705587,187.759514 351.360448,182.462352 350.344193,170.846508 L346.491126,126.805752 L357.435648,125.848231 C359.945604,125.628638 361.998239,124.552097 363.593613,122.618575 C365.188988,120.685053 365.874315,118.434162 365.649616,115.865834 C365.430023,113.355878 364.366798,111.287374 362.459908,109.660261 C360.553018,108.033147 358.344628,107.329397 355.834672,107.54899 L344.89015,108.506512 L342.009925,75.58539 C341.790332,73.0754338 340.712514,71.0082066 338.776439,69.3836464 C336.840364,67.7590863 334.617381,67.0566131 332.107425,67.2762058 C329.539098,67.5009053 327.442685,68.5812766 325.818125,70.517352 C324.193565,72.4534274 323.491092,74.6764099 323.710684,77.1863661 L326.590909,110.107488 L322.475769,110.467516 Z M183.282598,162.688341 L124.269737,167.851298 C124.922799,164.559179 126.096256,161.500962 127.790142,158.676553 C129.484027,155.852145 131.561303,153.376545 134.02203,151.249678 C136.482757,149.122812 139.243137,147.396181 142.303252,146.069734 C145.363368,144.743288 148.556953,143.934532 151.884105,143.643444 C155.211256,143.352356 158.48217,143.595541 161.696945,144.373006 C164.91172,145.150471 167.900805,146.374089 170.664289,148.043896 C173.427773,149.713703 175.903373,151.790978 178.091164,154.275784 C180.278955,156.76059 182.009416,159.564748 183.282598,162.688341 Z" id="Combined-Shape" fill="#F96332"></path>
        </g>
    </g>
</svg>